HIERARCHY
ROOT Hips
{
  OFFSET 3.66124 103.061 166.284
  CHANNELS 6 Xposition Yposition Zposition Zrotation Xrotation Yrotation
  JOINT RightUpLeg
  {
    OFFSET -8.9458 -8.66707 0.101652
    CHANNELS 3 Zrotation Xrotation Yrotation
    JOINT RightLeg
    {
      OFFSET 0 -44.4227 1.3727
      CHANNELS 3 Zrotation Xrotation Yrotation
      JOINT RightFoot
      {
        OFFSET 0.253549 -42.0924 -1.46059
        CHANNELS 3 Zrotation Xrotation Yrotation
        JOINT RightToes
        {
          OFFSET 0.04 -4.41509 8.4991
          CHANNELS 3 Zrotation Xrotation Yrotation
          End Site
          {
            OFFSET -0.08 -0.137448 9.77979
          }
        }
      }
    }
  }
  JOINT Spine
  {
    OFFSET 0 11.8905 0
    CHANNELS 3 Zrotation Xrotation Yrotation
    JOINT Spine1
    {
      OFFSET 0 25.6574 0.127663
      CHANNELS 3 Zrotation Xrotation Yrotation
      JOINT HEad
      {
        OFFSET 0 8.73416 0.011341
        CHANNELS 3 Zrotation Xrotation Yrotation
        End Site
        {
          OFFSET -0.29 12.7742 2.51395
        }
      }
      JOINT LeftShoulder1
      {
        OFFSET 8.99 -0.362252 -0.22
        CHANNELS 3 Zrotation Xrotation Yrotation
        JOINT LeftArm
        {
          OFFSET 10.2827 -0.00338 0.322123
          CHANNELS 3 Zrotation Xrotation Yrotation
          JOINT LeftForeArm
          {
            OFFSET 32.7669 0.099144 -1.42434
            CHANNELS 3 Zrotation Xrotation Yrotation
            JOINT LeftHand
            {
              OFFSET 27.5643 0.085362 1.02216
              CHANNELS 3 Zrotation Xrotation Yrotation
              End Site
              {
                OFFSET 16.7443 -0.6 1.50291
              }
            }
          }
        }
      }
      JOINT RightShoulder
      {
        OFFSET -8.99 -0.362252 -0.22
        CHANNELS 3 Zrotation Xrotation Yrotation
        JOINT RightArm
        {
          OFFSET -10.2827 -0.00338 0.322123
          CHANNELS 3 Zrotation Xrotation Yrotation
          JOINT RightForeArm
          {
            OFFSET -32.8971 0.099144 -1.42434
            CHANNELS 3 Zrotation Xrotation Yrotation
            JOINT RightHand
            {
              OFFSET -27.4921 0.085362 1.02216
              CHANNELS 3 Zrotation Xrotation Yrotation
              End Site
              {
                OFFSET -16.6312 -0.6 1.50291
              }
            }
          }
        }
      }
    }
  }
  JOINT LeftUpLeg
  {
    OFFSET 8.9458 -8.66707 0.101652
    CHANNELS 3 Zrotation Xrotation Yrotation
    JOINT LeftLeg
    {
      OFFSET 0 -44.4227 1.3727
      CHANNELS 3 Zrotation Xrotation Yrotation
      JOINT LeftFoot
      {
        OFFSET -0.253549 -42.0924 -1.46059
        CHANNELS 3 Zrotation Xrotation Yrotation
        JOINT LeftToes
        {
          OFFSET -0.04 -4.41509 8.4991
          CHANNELS 3 Zrotation Xrotation Yrotation
          End Site
          {
            OFFSET 0.08 -0.047448 9.77979
          }
        }
      }
    }
  }
}
MOTION
Frames:	12
Frame Time:	0.0166667
0	103.838	0	2.44455	5.5392	148.449	-1.57793	4.06721	-3.79088	1.09445	9.6228	-17.0538	0.982345	-6.44041	2.99736	4.62E-02	5.34E-04	0.662642	-0.0259239	-1.77957	0.802862	-0.0269436	-3.55655	1.60584	0.128529	18.5701	17.0987	-7.95E-16	1.59E-15	-6.36E-15	4.60537	-16.1152	-1.44622	-2.76506	10.9016	-12.669	6.67841	14.1323	10.5407	-7.95E-16	1.59E-15	-6.36E-15	4.79674	-8.88327	9.08706	0.509467	11.7495	-4.69232	-10.3396	11.7987	-0.336176	6.69E-01	9.93E-01	2.7748	2.02262	11.8979	-8.23759	-2.70631	-5.28182	-15.0924	1.31E-14	4.27E-14	1.59E-14
-0.007	103.84	0.016	2.45189	5.56509	148.483	-1.57805	4.09585	-3.82733	1.09061	9.61663	-17.0684	0.982991	-6.44021	2.94646	4.62E-02	5.34E-04	6.63E-01	-0.0247445	-1.78145	0.799067	-0.0246748	-3.5603	1.59828	0.12674	18.5958	17.1042	1.59E-15	3.18E-15	0.00E+00	4.56735	-16.1055	-1.43639	-2.74641	10.9173	-12.6631	6.6697	14.1381	10.5444	1.59E-15	3.18E-15	0.00E+00	4.80512	-8.91981	9.05268	0.514543	11.787	-4.69414	-10.2644	11.8254	-0.352026	6.45E-01	1.00823	2.74E+00	2.02886	11.9033	-8.22963	-2.69921	-5.27317	-15.0839	1.31E-14	4.21E-14	1.91E-14
-0.0297	103.839	0.014	2.4566	5.59423	148.51	-1.5962	4.12101	-3.85221	1.08889	9.61752	-17.0725	0.984605	-6.43792	2.94801	4.62E-02	5.34E-04	6.63E-01	-0.0243844	-1.78242	0.798759	-0.0238965	-3.56185	1.59321	0.120125	18.6192	17.1174	-7.95E-16	-1.59E-15	-6.36E-15	4.53181	-16.0925	-1.40805	-2.72663	10.9167	-12.6496	6.68571	14.1227	10.5562	-7.95E-16	-1.59E-15	-6.36E-15	4.82674	-8.93623	9.03929	0.507457	11.8341	-4.69507	-10.1121	11.8459	-0.407258	6.37E-01	1.01677	2.72358	2.03491	11.9125	-8.24104	-2.69719	-5.26212	-15.1755	1.29E-14	4.23E-14	1.27E-14
-0.0494	103.838	0.021	2.46517	5.62378	148.521	-1.61517	4.13943	-3.84962	1.09251	9.6268	-17.0872	0.982331	-6.43492	2.9334	4.62E-02	5.34E-04	6.63E-01	-0.024198	-1.7833	0.7998	-0.0228617	-3.56231	1.59477	0.111604	18.6343	17.1246	7.95E-16	1.59E-15	-6.36E-15	4.50685	-16.0862	-1.37233	-2.72493	10.9113	-12.6398	6.70573	14.1053	10.5578	7.95E-16	1.59E-15	-6.36E-15	4.83439	-8.92999	9.01437	0.502208	11.8652	-4.69551	-9.92447	11.8677	-0.445064	6.19E-01	1.03E+00	2.72E+00	2.03937	11.9244	-8.25429	-2.68629	-5.25646	-15.2923	1.31E-14	4.29E-14	9.54E-15
-0.0628	103.837	0.039	2.48025	5.65318	148.528	-1.6231	4.15833	-3.83949	1.09847	9.63668	-17.1109	0.979502	-6.43178	2.92514	4.62E-02	5.34E-04	6.63E-01	-0.0242114	-1.7841	0.801772	-0.0217349	-3.56219	1.60017	0.0965429	18.6482	17.1353	-7.95E-16	1.59E-15	0.00E+00	4.49862	-16.0899	-1.33447	-2.7433	10.923	-12.6275	6.70748	14.1028	10.546	-7.95E-16	1.59E-15	0.00E+00	4.83339	-8.88888	8.98252	0.505924	11.8796	-4.69514	-9.80045	11.8893	-0.449926	0.601394	1.04958	2.71E+00	2.03946	11.9362	-8.25698	-2.68149	-5.25361	-15.1494	1.33E-14	4.29E-14	6.36E-15
-0.0816	103.836	0.052	2.49322	5.67978	148.529	-1.6311	4.17528	-3.83327	1.10162	9.64264	-17.1259	0.979734	-6.42903	2.94831	4.62E-02	5.34E-04	6.63E-01	-0.024451	-1.7848	0.804256	-0.0206277	-3.56196	1.60746	0.0755268	18.6621	17.1488	2.39E-15	3.18E-15	0.00E+00	4.48592	-16.0818	-1.30515	-2.75712	10.9514	-12.6065	6.68172	14.1004	10.554	2.39E-15	3.18E-15	0.00E+00	4.82885	-8.83401	8.96437	0.511007	11.8955	-4.69394	-9.74628	11.9272	-0.440155	5.97E-01	1.06E+00	2.69E+00	2.03398	11.9451	-8.25509	-2.67577	-5.24871	-15.0974	1.29E-14	4.23E-14	0.00E+00
-0.1043	103.835	0.059	2.49858	5.70085	148.534	-1.64118	4.18711	-3.83686	1.10062	9.64686	-17.1221	0.976594	-6.4276	2.95407	4.62E-02	5.34E-04	6.63E-01	-0.024943	-1.7854	0.806835	-0.0197041	-3.56212	1.61387	0.0528155	18.6881	17.1663	0.00E+00	1.59E-15	0.00E+00	4.45866	-16.0645	-1.27453	-2.76111	10.9811	-12.583	6.65025	14.0978	10.573	0.00E+00	1.59E-15	0.00E+00	4.82687	-8.77575	8.9627	0.51073	11.9242	-4.6918	-9.72309	11.9666	-0.446685	5.89E-01	1.07E+00	2.68E+00	2.02879	11.9548	-8.25092	-2.66261	-5.24221	-15.2075	1.31E-14	4.25E-14	9.54E-15
-0.1168	103.834	0.077	2.49796	5.71736	148.538	-1.65522	4.19873	-3.83661	1.09788	9.64855	-17.1127	0.970381	-6.42448	2.96125	4.62E-02	5.34E-04	6.63E-01	-0.0256777	-1.78589	0.810255	-0.0188746	-3.56316	1.62069	0.0384386	18.7199	17.1821	7.95E-16	3.18E-15	6.36E-15	4.44696	-16.0452	-1.23831	-2.7632	10.9947	-12.5663	6.61729	14.0958	10.5823	7.95E-16	3.18E-15	6.36E-15	4.82512	-8.72961	8.96091	0.497445	11.9409	-4.68638	-9.69686	12.0002	-0.45746	5.69E-01	1.07E+00	2.68E+00	2.02398	11.9585	-8.24644	-2.65031	-5.23804	-15.1426	1.31E-14	4.29E-14	3.18E-15
-0.1386	103.834	0.081	2.49008	5.73606	148.543	-1.67377	4.20519	-3.82499	1.09765	9.6493	-17.1173	0.964454	-6.42094	2.93543	4.62E-02	5.34E-04	6.63E-01	-0.0267026	-1.78627	0.813412	-0.0181876	-3.56556	1.62699	0.0374506	18.7471	17.1918	-7.95E-16	1.59E-15	-3.18E-15	4.44576	-16.0424	-1.20406	-2.76812	11.0071	-12.5549	6.60733	14.0937	10.5855	-7.95E-16	1.59E-15	-3.18E-15	4.82508	-8.69699	8.96787	0.477927	11.9353	-4.67858	-9.67418	12.0337	-0.471514	5.54E-01	1.07E+00	2.66512	2.01681	11.9601	-8.24396	-2.64001	-5.22915	-15.213	1.29E-14	4.27E-14	1.27E-14
-0.1512	103.834	0.096	2.48497	5.7493	148.549	-1.68913	4.20292	-3.79908	1.09982	9.64926	-17.1336	0.956471	-6.41826	2.90909	4.62E-02	5.34E-04	6.63E-01	-0.0287908	-1.78653	0.816677	-0.0175511	-3.57132	1.6334	0.0441917	18.7802	17.1977	1.59E-15	3.18E-15	3.18E-15	4.457	-16.0464	-1.16807	-2.77005	11.0265	-12.549	6.59414	14.0933	10.5889	1.59E-15	3.18E-15	3.18E-15	4.80778	-8.68204	8.97937	0.472559	11.9292	-4.67646	-9.66396	12.0717	-0.479647	5.33E-01	1.07E+00	2.66E+00	2.01147	11.96	-8.24469	-2.62304	-5.22243	-15.1819	1.35E-14	4.21E-14	-3.18E-15
-0.1655	103.833	0.107	2.47766	5.75677	148.56	-1.70314	4.19429	-3.78129	1.10135	9.65017	-17.141	0.950569	-6.41677	2.90037	4.62E-02	5.34E-04	6.63E-01	-0.0298673	-1.78667	0.820527	-0.0170097	-3.57646	1.6411	0.0605819	18.8056	17.2009	-7.95E-16	-1.59E-15	3.18E-15	4.47462	-16.0559	-1.13893	-2.76654	11.0461	-12.5455	6.57765	14.0982	10.5936	-7.95E-16	-1.59E-15	3.18E-15	4.76286	-8.68468	9.00051	0.50063	11.9286	-4.68772	-9.66143	12.0965	-0.462908	5.21E-01	1.06E+00	2.65E+00	2.00382	11.9586	-8.25714	-2.61005	-5.2149	-15.1127	1.27E-14	4.25E-14	1.27E-14
-0.1838	103.833	0.113	2.46846	5.75729	148.574	-1.71871	4.17858	-3.76666	1.10392	9.65236	-17.147	0.943846	-6.41604	2.90943	4.62E-02	5.34E-04	0.662642	-0.0306823	-1.78667	0.824113	-0.016713	-3.58079	1.64785	0.070001	18.8222	17.2082	0.00E+00	1.59E-15	0.00E+00	4.47812	-16.0564	-1.12633	-2.74928	11.0549	-12.5448	6.57665	14.1075	10.6035	0.00E+00	1.59E-15	0.00E+00	4.68819	-8.71089	9.04374	0.554771	11.9375	-4.7094	-9.67293	12.1226	-0.431908	5.15E-01	1.04E+00	2.65E+00	1.99336	11.9568	-8.2707	-2.59211	-5.20582	-15.1824	1.27E-14	4.19E-14	1.27E-14
